Patient4_TMGait_0pt7_02_left_28_GRF.mot
version=1
nRows=71
nColumns=19
inDegrees=no
endheader
time	F1x	F1y	F1z	M1x	M1y	M1z	F2x	F2y	F2z	M2x	M2y	M2z	EC1x	EC1y	EC1z	EC2x	EC2y	EC2z
31.92	-29.6517	19.0268	2.2841	-7.6999	-8.0959	33.8924	-51.7475	766.9611	-60.1051	277.1055	97.9452	864.7475	-0.0592	0.0182	-0.0073	-0.0462	0.0165	0.9585
31.9315	-19.971	13.9366	1.6718	-5.5943	-5.5463	24.1572	-49.3614	765.1996	-64.8689	277.4167	99.0835	859.6732	-0.0592	0.0182	-0.0073	-0.0462	0.0165	0.9585
31.943	-11.879	9.7448	1.1188	-3.8366	-3.3878	16.0862	-46.647	763.1022	-68.5381	277.4157	99.1981	853.4801	-0.0592	0.0182	-0.0073	-0.0462	0.0165	0.9585
31.9545	-5.7332	6.6167	0.69354	-2.514	-1.7513	10.0176	-43.6484	760.7287	-70.8856	277.0681	98.2397	846.3263	-0.0592	0.0182	-0.0073	-0.0462	0.0165	0.9585
31.966	-1.543	4.5346	0.38147	-1.6216	-0.62566	5.955	-40.3832	758.0732	-71.9609	276.3813	96.307	838.3171	-0.0592	0.0182	-0.0073	-0.0462	0.0165	0.9585
31.9775	1.0532	3.2854	0.1827	-1.0817	0.06591	3.488	-36.8708	754.9925	-72.0251	275.3494	93.6359	829.4103	-0.0592	0.0182	-0.0073	-0.0462	0.0165	0.9585
31.989	2.3692	2.6486	0.076099	-0.80168	0.40362	2.2502	-33.0936	751.2962	-71.3153	273.9634	90.3951	819.4865	-0.0592	0.0182	-0.0073	-0.0462	0.0165	0.9585
32.0005	2.8492	2.3414	0.043301	-0.67452	0.49502	1.706	-29.0104	746.7728	-70.0995	272.2059	86.7628	808.3821	-0.0592	0.0182	-0.0073	-0.0462	0.0165	0.9585
32.012	2.7384	2.1559	0.077092	-0.61023	0.3935	1.5118	-24.5611	741.2742	-68.5229	270.0771	82.8011	795.9922	-0.0592	0.0182	-0.0073	-0.0462	0.0165	0.9585
32.0235	2.3564	1.8486	0.15916	-0.51865	0.18733	1.2379	-19.6644	734.8458	-66.7324	267.6324	78.5866	782.4085	-0.0592	0.0182	-0.0073	-0.0462	0.0165	0.9585
32.035	1.805	1.2716	0.27807	-0.33398	-0.090025	0.68909	-14.2826	727.7406	-64.825	264.9901	74.1732	767.946	-0.0592	0.0182	-0.0073	-0.0462	0.0165	0.9585
32.0465	1.2718	0.24862	0.4159	0.0066579	-0.37584	-0.41505	-8.4026	720.4416	-62.8895	262.3379	69.6262	753.1476	-0.0592	0.0182	-0.0073	-0.0462	0.0165	0.9585
32.058	0.77562	-1.2662	0.54265	0.52638	-0.63426	-2.1107	-2.0738	713.6739	-61.0423	259.9336	65.0558	738.8227	-0.0592	0.0182	-0.0073	-0.0462	0.0165	0.9585
32.0695	0.44242	-3.2749	0.62962	1.2188	-0.80253	-4.4472	4.6093	708.2589	-59.3674	258.0682	60.5584	725.8593	-0.0592	0.0182	-0.0073	-0.0462	0.0165	0.9585
32.081	0.27526	-5.5702	0.61972	2.0132	-0.80985	-7.1406	11.526	705.0494	-58.0119	257.0339	56.2999	715.1858	-0.0592	0.0182	-0.0073	-0.0462	0.0165	0.9585
32.0925	0.40333	-7.7476	0.45441	2.7629	-0.54162	-9.7445	18.519	704.6621	-57.0763	257.0434	52.4132	707.4618	-0.0592	0.0182	-0.0073	-0.0462	0.0165	0.9585
32.104	0.84429	-9.0524	0.042158	3.2019	0.13209	-11.317	25.3719	707.3939	-56.6956	258.1854	49.0844	703.0339	-0.0592	0.0182	-0.0073	-0.0462	0.0165	0.9585
32.1155	1.7571	-8.388	-0.70497	2.9355	1.3722	-10.5731	31.8414	713.0916	-56.9206	260.3861	46.4355	701.7971	-0.0592	0.0182	-0.0073	-0.0462	0.0165	0.9585
32.127	3.1721	-4.1749	-1.8858	1.4106	3.3152	-5.5774	37.6266	721.1236	-57.7606	263.3934	44.5731	703.2045	-0.0592	0.0182	-0.0073	-0.0462	0.0165	0.9585
32.1385	5.1931	5.5271	-3.5564	-2.0492	6.0606	5.9764	42.4139	730.3936	-59.1296	266.7861	43.5292	706.2709	-0.0592	0.0182	-0.0073	-0.0462	0.0165	0.9585
32.15	7.725	22.9516	-5.7119	-8.2056	9.5678	26.8068	45.865	739.3658	-60.8719	269.9814	43.2837	709.6442	-0.0592	0.0182	-0.0073	-0.0462	0.0165	0.9585
32.1615	10.595	50.1608	-8.1896	-17.7559	13.5662	59.369	47.7135	746.1898	-62.7508	272.2856	43.7251	711.6794	-0.0592	0.0182	-0.0073	-0.0462	0.0165	0.9585
32.173	13.2782	88.4788	-10.63	-31.1205	17.4181	105.3023	47.8106	748.8871	-64.4732	272.9675	44.6472	710.6078	-0.0592	0.0182	-0.0073	-0.0462	0.0165	0.9585
32.1845	14.9666	137.3968	-12.3519	-48.0715	19.9946	164.0053	46.222	745.5699	-65.7016	271.3512	45.7296	704.6975	-0.0592	0.0182	-0.0073	-0.0462	0.0165	0.9585
32.196	14.3392	193.3458	-12.3028	-67.3007	19.5701	231.2669	43.2351	734.7582	-66.0828	266.9307	46.5625	692.5316	-0.0592	0.0182	-0.0073	-0.0462	0.0165	0.9585
32.2075	10.4333	249.0139	-9.3034	-86.2158	14.4577	298.3429	39.3083	715.6403	-65.3242	259.4644	46.7362	673.2128	-0.0592	0.0182	-0.0073	-0.0462	0.0165	0.9585
32.219	4.2614	295.5665	-2.9823	-101.7978	4.6843	354.4888	34.9669	688.3152	-63.2576	249.051	45.9308	646.6518	-0.0592	0.0182	-0.0073	-0.0462	0.0165	0.9585
32.2305	-2.1709	328.5321	5.32	-112.6008	-7.4608	393.988	30.7746	653.8293	-59.9591	236.1214	44.0379	613.6184	-0.0592	0.0182	-0.0073	-0.0462	0.0165	0.9585
32.242	-8.1704	349.8765	14.3262	-119.3456	-20.2067	419.0257	27.1715	613.9121	-55.717	221.3249	41.1653	575.5645	-0.0592	0.0182	-0.0073	-0.0462	0.0165	0.9585
32.2535	-13.2638	364.4898	23.2012	-123.7691	-32.3957	435.3898	24.472	570.314	-50.9841	205.2991	37.6034	533.9984	-0.0592	0.0182	-0.0073	-0.0462	0.0165	0.9585
32.265	-17.4255	377.2855	30.9331	-127.6218	-42.8657	449.0959	22.7744	524.4944	-46.0915	188.5639	33.6027	490.2704	-0.0592	0.0182	-0.0073	-0.0462	0.0165	0.9585
32.2765	-20.5467	391.6339	37.0539	-132.0997	-51.0161	464.2664	22.0018	477.5231	-41.1603	171.5036	29.2963	445.4097	-0.0592	0.0182	-0.0073	-0.0462	0.0165	0.9585
32.288	-22.5837	408.8268	41.0136	-137.6737	-56.2508	482.5483	21.8856	430.2093	-36.1541	154.4067	24.7454	400.2642	-0.0592	0.0182	-0.0073	-0.0462	0.0165	0.9585
32.2995	-23.4993	428.6492	43.023	-144.2458	-58.7839	503.6935	22.0726	383.1406	-30.9942	137.4805	20.0076	355.4736	-0.0592	0.0182	-0.0073	-0.0462	0.0165	0.9585
32.311	-23.3506	450.3486	43.463	-151.498	-59.1037	526.8908	22.1236	336.7923	-25.716	120.8808	15.264	311.5784	-0.0592	0.0182	-0.0073	-0.0462	0.0165	0.9585
32.3225	-22.1937	473.2441	43.1163	-159.1168	-58.1293	551.376	21.6633	291.6106	-20.4722	104.7438	10.7754	269.0495	-0.0592	0.0182	-0.0073	-0.0462	0.0165	0.9585
32.334	-20.3255	496.913	42.7007	-166.8808	-56.7938	576.6763	20.4035	248.1145	-15.5331	89.2237	6.8686	228.4029	-0.0592	0.0182	-0.0073	-0.0462	0.0165	0.9585
32.3455	-18.1098	520.9371	42.8483	-174.6014	-55.9538	602.2981	18.2503	206.9123	-11.1822	74.5137	3.8121	190.1712	-0.0592	0.0182	-0.0073	-0.0462	0.0165	0.9585
32.357	-15.9963	545.3218	44.0355	-182.2541	-56.2963	628.2179	15.2942	168.7444	-7.6593	60.8583	1.7659	154.9909	-0.0592	0.0182	-0.0073	-0.0462	0.0165	0.9585
32.3685	-14.1799	570.5138	46.2906	-190.0056	-57.9467	654.8416	11.8478	134.2985	-5.0395	48.5021	0.67207	123.411	-0.0592	0.0182	-0.0073	-0.0462	0.0165	0.9585
32.38	-12.7201	597.182	49.6078	-198.1027	-60.9094	682.8675	8.3169	104.1066	-3.2696	37.6384	0.33262	95.8428	-0.0592	0.0182	-0.0073	-0.0462	0.0165	0.9585
32.3915	-11.6305	625.5185	53.7411	-206.6543	-64.9131	712.3753	5.0984	78.3757	-2.1763	28.356	0.46331	72.3979	-0.0592	0.0182	-0.0073	-0.0462	0.0165	0.9585
32.403	-10.8577	655.1191	58.5494	-215.5626	-69.7576	742.8619	2.4067	57.0369	-1.5406	20.6458	0.80443	52.9844	-0.0592	0.0182	-0.0073	-0.0462	0.0165	0.9585
32.4145	-10.2482	685.1486	63.7257	-224.596	-75.0455	773.3045	0.34168	39.8452	-1.1655	14.4329	1.1583	37.3473	-0.0592	0.0182	-0.0073	-0.0462	0.0165	0.9585
32.426	-9.7037	714.5453	68.9882	-233.444	-80.4104	802.4979	-1.1123	26.4338	-0.91971	9.5923	1.4144	25.1577	-0.0592	0.0182	-0.0073	-0.0462	0.0165	0.9585
32.4375	-9.0386	742.2088	74.023	-241.7821	-85.4316	829.2116	-1.9442	16.3758	-0.71549	5.9713	1.4943	16.0084	-0.0592	0.0182	-0.0073	-0.0462	0.0165	0.9585
32.449	-8.177	767.0161	78.5313	-249.2679	-89.7429	852.2534	-2.2208	9.236	-0.52574	3.409	1.3973	9.5095	-0.0592	0.0182	-0.0073	-0.0462	0.0165	0.9585
32.4605	-7.0417	787.8473	82.4027	-255.5468	-93.1772	870.4653	-2.0737	4.5643	-0.36024	1.7391	1.1826	5.2447	-0.0592	0.0182	-0.0073	-0.0462	0.0165	0.9585
32.472	-5.5863	803.752	85.4951	-260.3124	-95.565	882.9275	-1.7365	1.8949	-0.22596	0.78662	0.93375	2.8184	-0.0592	0.0182	-0.0073	-0.0462	0.0165	0.9585
32.4835	-3.7721	814.0338	87.7955	-263.34	-96.8755	888.9983	-1.3355	0.67505	-0.13396	0.35265	0.7036	1.711	-0.0592	0.0182	-0.0073	-0.0462	0.0165	0.9585
32.495	-1.5886	818.4896	89.1922	-264.5626	-97.0028	888.5727	-0.97055	0.44072	-0.071942	0.26575	0.51461	1.5134	-0.0592	0.0182	-0.0073	-0.0462	0.0165	0.9585
32.5065	0.96155	817.3625	89.6973	-264.0485	-95.9833	882.0327	-0.66303	0.76932	-0.039135	0.37804	0.37774	1.8258	-0.0592	0.0182	-0.0073	-0.0462	0.0165	0.9585
32.518	3.7637	811.3071	89.3405	-261.9963	-93.91	870.1819	-0.4432	1.3884	-0.023727	0.59061	0.28899	2.4107	-0.0592	0.0182	-0.0073	-0.0462	0.0165	0.9585
32.5295	6.7247	801.2229	88.2589	-258.6805	-90.9886	854.097	-0.28655	2.089	-0.01754	0.83219	0.233	3.066	-0.0592	0.0182	-0.0073	-0.0462	0.0165	0.9585
32.541	9.692	788.209	86.6377	-254.4375	-87.4854	835.051	-0.20339	2.7692	-0.014363	1.0661	0.20356	3.7189	-0.0592	0.0182	-0.0073	-0.0462	0.0165	0.9585
32.5525	12.5094	773.4669	84.6564	-249.6352	-83.6601	814.3677	-0.1628	3.3715	-0.01038	1.2734	0.18798	4.3166	-0.0592	0.0182	-0.0073	-0.0462	0.0165	0.9585
32.564	15.0345	758.1759	82.5302	-244.6397	-79.7946	793.3357	-0.16963	3.8757	-0.0037493	1.4479	0.18382	4.8582	-0.0592	0.0182	-0.0073	-0.0462	0.0165	0.9585
32.5755	17.1628	743.3667	80.3904	-239.7795	-76.0781	773.0316	-0.19335	4.2668	0.0040346	1.5865	0.18341	5.3026	-0.0592	0.0182	-0.0073	-0.0462	0.0165	0.9585
32.587	18.855	729.7983	78.3968	-235.3015	-72.6904	754.233	-0.24474	4.5448	0.0095864	1.6886	0.19176	5.6333	-0.0592	0.0182	-0.0073	-0.0462	0.0165	0.9585
32.5985	20.1842	717.9988	76.5845	-231.3856	-69.6512	737.4389	-0.30025	4.676	0.0011923	1.7427	0.21565	5.791	-0.0592	0.0182	-0.0073	-0.0462	0.0165	0.9585
32.61	21.2659	708.2659	75.0289	-228.1373	-66.9949	722.8954	-0.37711	4.6296	-0.017679	1.7341	0.25826	5.7326	-0.0592	0.0182	-0.0073	-0.0462	0.0165	0.9585
32.6215	22.2634	700.7748	73.7079	-225.6196	-64.6463	710.7187	-0.45531	4.3211	-0.052969	1.6294	0.32065	5.3353	-0.0592	0.0182	-0.0073	-0.0462	0.0165	0.9585
32.633	23.3433	695.5881	72.648	-223.8466	-62.5769	700.9154	-0.54869	3.6517	-0.09546	1.3865	0.39436	4.4803	-0.0592	0.0182	-0.0073	-0.0462	0.0165	0.9585
32.6445	24.6276	692.6729	71.8459	-222.7995	-60.7443	693.3961	-0.62602	2.4895	-0.14367	0.95161	0.46485	3.0035	-0.0592	0.0182	-0.0073	-0.0462	0.0165	0.9585
32.656	26.2487	691.9246	71.3328	-222.4297	-59.1381	688.01	-0.67981	0.72168	-0.18058	0.27663	0.50543	0.78108	-0.0592	0.0182	-0.0073	-0.0462	0.0165	0.9585
32.6675	28.288	693.1863	71.1136	-222.672	-57.7362	684.5547	-0.6486	-1.734	-0.19685	-0.67061	0.48303	-2.2932	-0.0592	0.0182	-0.0073	-0.0462	0.0165	0.9585
32.679	30.8393	696.2458	71.1548	-223.4475	-56.4749	682.7584	-0.49345	-4.8372	-0.1788	-1.8749	0.36532	-6.1632	-0.0592	0.0182	-0.0073	-0.0462	0.0165	0.9585
32.6905	33.9601	700.7871	71.429	-224.646	-55.2991	682.2955	-0.1357	-8.3822	-0.12015	-3.2505	0.11463	-10.5799	-0.0592	0.0182	-0.0073	-0.0462	0.0165	0.9585
32.702	37.7156	706.3485	71.8691	-226.1153	-54.1166	682.6896	0.477	-11.8174	-0.00896	-4.5829	-0.30504	-14.8543	-0.0592	0.0182	-0.0073	-0.0462	0.0165	0.9585
32.7135	42.1094	712.3719	72.4566	-227.6708	-52.8992	683.4284	1.4174	-14.1874	0.16635	-5.4936	-0.92983	-17.8239	-0.0592	0.0182	-0.0073	-0.0462	0.0165	0.9585
32.725	47.1503	718.1994	73.1157	-229.1047	-51.5671	683.8981	2.7	-13.957	0.41384	-5.3813	-1.7699	-17.598	-0.0592	0.0182	-0.0073	-0.0462	0.0165	0.9585
